<?xml version="1.0" encoding="utf-8"?>
<!-- Generator: Adobe Illustrator 25.0.0, SVG Export Plug-In . SVG Version: 6.00 Build 0)  -->
<svg version="1.1" id="Layer_1" xmlns="http://www.w3.org/2000/svg" xmlns:xlink="http://www.w3.org/1999/xlink" x="0px" y="0px"
	 viewBox="0 0 1200 718" style="enable-background:new 0 0 1200 718;" xml:space="preserve">
<style type="text/css">
	.st0{fill:#252F3E;}
	.st1{fill:#FF9900;}
</style>
<g>
	<g id="layer102">
		<path class="st0" d="M984.1,373.9c-15-1.1-29.7-3.6-44.6-7.4c-31.7-8.2-48.4-16.4-52.6-26.1c-3.8-8.5-3.7-34.9,0.1-39.6
			c3.2-4,9.3-3.1,27.4,4.1c17.6,7,35.8,11.9,54.1,14.7c16.2,2.4,46.4,2.5,59.1,0.1c34.8-6.4,53-24.8,51.1-51.8
			c-0.9-13.5-6.4-22.8-18.3-30.8c-10.2-6.9-20.2-10.7-61.5-23.6c-39.3-12.3-49.4-16.1-62.8-24c-10.4-6.1-24.2-19-30.5-28.5
			c-11.6-17.3-16.9-33.9-16.8-53.5c0.1-26.7,8.5-46.9,27.7-66c13.4-13.5,29.2-22.8,49.9-29.4c17.4-5.6,25.4-6.6,52.6-6.6
			c22.4,0,25.8,0.3,39,2.8c24.1,4.5,43.4,10.7,53.5,17.2c10.9,7.1,12.5,10.7,12.5,29.3c0,7.7-0.5,15.3-1.1,17.1
			c-2.4,6.8-7.8,6.7-25.2-0.3c-16-6.5-24.4-8.9-39.8-11.5c-31.8-5.5-64.6-2.9-83.1,6.5c-6.5,3.3-14.7,11.5-17.6,17.6
			c-5.3,11.4-4.9,27,1,38.1c7,13,22.6,22.2,56.3,33.1c11,3.5,29.9,9.6,42,13.5c31.6,10.2,47.4,18.3,60.9,31
			c11.1,10.6,19.5,24.9,23.7,40.6c3,10.9,3.3,34.2,0.5,46c-4.3,18.8-13.4,35.3-26.8,48.8C1086.1,364.2,1039,378.1,984.1,373.9z"/>
		<path class="st0" d="M146,372.3c-7.7-0.8-19.9-3.7-27.6-6.4c-21.9-8-41-25.1-51.7-46.4c-14.2-28.4-14.3-70.2-0.2-98.5
			c12.7-25.9,36.4-45.5,66.9-55.4c17.6-5.8,27.9-7.1,55.6-7.1c27.8,0,40.4,1.4,70,7.5c8,1.6,15.1,3,15.8,3c0.9,0,1.2-4.3,1.2-18
			c0-38.1-4.9-58.3-17.5-71.8c-9.4-10.1-22.1-15.8-41.8-18.8c-15.3-2.4-44.1-1.4-60.3,2c-14.5,3.1-34.8,9.2-48.6,14.7
			c-26.2,10.4-28.8,9-28.8-15c0-17.2,1.1-22.1,5.8-26.2c11.3-9.9,54.3-24.1,86.7-28.6c13.4-1.8,49-2,62-0.4
			c55.9,7.3,87.1,31.2,100,76.8c5.7,20.4,5.7,19.3,6.5,108.8c0.5,55.8,1.2,85.5,2,90.5c1.6,10.4,5.1,20.4,12.1,34.9
			c6.4,13.5,7.2,17.5,4,22.7c-1.9,3-24.2,18.9-32.8,23.3c-8.4,4.2-15.3,1.6-23.9-9c-7.2-9.1-8.4-11-15.4-24.2l-6.2-11.8l-9.5,9.6
			c-24.9,25.1-53.6,39.4-87.3,43.5C175,372.9,153.7,373.1,146,372.3z M199.6,320.5c24-4.2,41-12.4,55.2-26.6
			c15.5-15.6,20.4-29.6,21.8-63.1l0.7-16.7l-2.4-1c-4.2-1.8-28.1-6-44-7.7c-16.8-1.8-43.5-1.5-54.4,0.6c-27.7,5.2-45.1,20-50.5,42.9
			c-1.8,7.5-1.5,26.1,0.4,34.4c4.6,19.8,17.8,32.8,37.7,37.2C172.7,322.3,188.8,322.3,199.6,320.5z"/>
		<path class="st0" d="M487.6,363c-3.9-1.2-7.1-4.4-9.6-9.8c-1.8-3.7-94-305-98-320.1c-0.6-2.4-1.2-6.5-1.2-9c0-3.7,0.5-5,2.7-6.8
			c2.6-2.3,3.1-2.3,26.8-2.3c13.3,0,25.8,0.5,27.9,1c5.4,1.5,9.3,6.7,12.3,16.2c1.4,4.6,17.1,65.7,34.9,135.8
			c17.8,70.1,32.6,126.8,33,126c0.3-0.8,14.5-60.8,31.6-133.3c19.2-81.9,31.9-133.6,33.3-136.5c1.6-3.1,3.5-5.2,6.2-6.6
			c3.8-2,5.6-2.1,29.5-2.1c23.9,0,25.7,0.1,29,2.1c1.9,1.1,4.5,3.8,5.7,6c1.4,2.5,13.2,50.6,33.7,137.9
			c17.4,73.7,31.9,134.7,32.2,135.5c0.3,0.8,16.3-59.1,35.4-133.1c19.1-74,35.7-136.3,36.8-138.5c2.5-4.8,5.7-7.8,10.1-9.3
			c4.1-1.3,47.8-1.5,51.4-0.2c3.8,1.5,5.2,6.1,3.8,12.9c-2,9.9-99.2,320.5-102,325.7c-1.9,3.7-3.7,5.6-7.1,7.3
			c-4.2,2.1-5.5,2.2-29.8,2.2c-29.1,0-30.5-0.3-34.7-7.5c-1.9-3.1-10.4-36.8-33-131.1c-33.1-137.6-32.4-134.8-33-134.2
			c-0.3,0.2-14.2,57.8-30.9,127.9c-16.8,70.1-31.3,129.5-32.2,132.1c-2,6.1-6,10.3-11,11.7C536.8,364.2,491.9,364.3,487.6,363z"/>
	</g>
	<g id="layer103">
		<path class="st1" d="M559,712.4c-3-0.2-13.1-0.8-22.5-1.4c-159.4-10.2-316.9-66.1-445.6-158.1c-36-25.7-78.9-61.1-82.4-68
			c-3.3-6.3-1-12.1,5.4-14c4.7-1.4,6.8-0.5,30.1,12.5c199,111,446.9,162.5,675,140c113-11.1,222.7-38.1,327.8-80.6
			c18.5-7.4,24.6-8.8,30.5-6.9c4.6,1.6,10.4,8,11.3,12.5c0.5,2.8,0,4.8-2.1,9.1c-2.2,4.7-4.1,6.5-12.8,12.9
			C969.9,645.8,819.5,697.3,664,710.6C646.8,712,573.4,713.3,559,712.4z"/>
		<path class="st1" d="M1100.5,663.6c-3.2-2.3-2.1-7,7.3-31.1c24-61.5,34.1-103.1,29.2-120.7c-5.6-20.1-45.7-24.2-136.4-14.2
			c-24.8,2.8-27.8,2.5-29-2.1c-1.4-5.7,3.1-10.8,17-19.1c22.9-13.6,51-22.6,86.4-27.6c14.6-2,58.5-1.7,73,0.5
			c26.5,4.1,39.3,9.3,42.7,17.6c2.1,5,2.8,22.5,1.4,35.1c-6.5,56.5-32.6,114.5-67.2,149.2C1112.3,663.8,1105.5,667.3,1100.5,663.6z"
			/>
	</g>
</g>
</svg>
