<!DOCTYPE svg PUBLIC "-//W3C//DTD SVG 20010904//EN" "http://www.w3.org/TR/2001/REC-SVG-20010904/DTD/svg10.dtd">
<svg version="1.0" xmlns="http://www.w3.org/2000/svg" width="250px" height="250px" viewBox="0 0 2500 2500" preserveAspectRatio="xMidYMid meet">
<g id="layer101" fill="#8d0041" stroke="none">
 <path d="M1165 2426 c-22 -7 -159 -81 -305 -166 -363 -210 -519 -299 -560 -323 -128 -72 -124 -58 -130 -442 l-5 -320 -22 -10 c-29 -12 -29 -19 2 -39 l25 -16 0 -195 c0 -206 5 -232 48 -278 22 -23 204 -134 380 -233 20 -11 154 -87 296 -169 335 -193 300 -190 552 -48 99 57 184 103 189 103 5 0 16 -7 26 -16 24 -21 38 -11 37 28 -1 18 3 34 8 35 5 2 119 68 254 147 242 141 245 144 273 196 l27 53 0 518 c-1 350 -4 529 -12 551 -23 71 -51 92 -340 258 -462 267 -417 236 -429 285 -11 42 -12 43 -55 47 -25 2 -48 0 -53 -5 -4 -4 -32 3 -62 17 -74 33 -97 36 -144 22z"/>
 </g>
<g id="layer102" fill="#ea4c8c" stroke="none">
 <path d="M1374 2391 c-11 -11 0 -21 51 -50 30 -17 57 -31 59 -31 2 0 -1 18 -6 39 -10 37 -12 39 -55 43 -24 2 -46 1 -49 -1z"/>
 <path d="M1098 1949 c-172 -27 -366 -148 -460 -288 -17 -25 -33 -48 -34 -50 -2 -2 -94 49 -205 113 -147 85 -205 114 -213 106 -7 -7 -13 -119 -16 -333 l-5 -322 -23 -10 c-28 -12 -28 -19 3 -39 l25 -16 0 -195 c0 -206 5 -232 48 -278 22 -23 204 -134 380 -233 20 -11 154 -87 296 -169 335 -193 300 -190 552 -48 99 57 184 103 189 103 5 0 16 -7 26 -16 23 -21 38 -11 37 26 -1 17 1 32 3 34 2 2 115 68 252 147 136 79 254 153 262 165 14 22 10 25 -183 137 -108 63 -240 140 -292 172 -52 32 -147 86 -210 120 -125 67 -600 342 -613 354 -11 11 69 98 118 126 23 14 74 32 111 40 61 13 77 12 134 -1 83 -19 137 -51 193 -114 l44 -51 151 88 c84 48 152 90 152 93 0 15 -117 150 -163 188 -69 58 -215 127 -304 145 -77 16 -178 18 -255 6z"/>
 </g>
<g id="layer103" fill="#fffefe" stroke="none">
 <path d="M1374 2389 c-5 -8 8 -18 67 -52 l47 -27 -10 39 c-10 37 -12 39 -55 43 -25 2 -47 0 -49 -3z"/>
 <path d="M1034 1930 c-344 -90 -570 -431 -514 -777 74 -466 571 -727 995 -523 44 21 108 61 141 89 63 51 157 166 151 184 -1 5 -68 47 -147 93 l-144 84 -44 -50 c-28 -32 -66 -61 -110 -82 -59 -30 -76 -33 -152 -33 -71 0 -94 4 -141 26 -79 37 -133 90 -171 167 -28 56 -33 76 -33 141 0 182 109 316 289 353 106 23 225 -19 314 -110 l53 -54 144 83 c80 46 145 86 145 90 0 19 -96 134 -150 178 -170 141 -415 197 -626 141z"/>
 <path d="M138 1163 c-24 -6 -23 -20 2 -33 18 -9 20 -8 20 15 0 14 -1 24 -2 24 -2 -1 -11 -3 -20 -6z"/>
 <path d="M1667 311 c-27 -18 -27 -18 -8 -35 25 -23 40 -14 39 24 -1 17 -1 30 -2 29 -1 0 -13 -8 -29 -18z"/>
 </g>

</svg>