<svg id="Layer_1" data-name="Layer 1" xmlns="http://www.w3.org/2000/svg" viewBox="0 0 64 64"><defs><style>.cls-1{fill:#184734;fill-rule:evenodd;}</style></defs><path class="cls-1" d="M10.67,21.33V38.19a19.74,19.74,0,0,1-4.16.48C2.23,38.66,0,36.76,0,33.09s2.36-5.82,6-5.82a5.94,5.94,0,0,1,1.53.17V21.33Zm-3.12,8.9a3.41,3.41,0,0,0-1.19-.18c-1.77,0-2.79,1.08-2.79,3a2.54,2.54,0,0,0,2.77,2.86,8,8,0,0,0,1.21-.09Z"/><path class="cls-1" d="M16,26.73v8.82c0,2.77-.21,4.3-.82,5.44a5.51,5.51,0,0,1-2.86,2.57L9.07,42a5,5,0,0,0,2.77-2.32c.5-1,.67-2.34.67-5.36V26.72H16Zm-3.49-5.4H16V25H12.51Zm5.8,6.5a10.15,10.15,0,0,1,4.54-1c1.77,0,2.93.48,3.44,1.42a5.76,5.76,0,0,1,.38,2.7v7.21a36.68,36.68,0,0,1-4.9.39c-2.87,0-4.17-1-4.17-3.34,0-2.49,1.72-3.64,5.93-4v-.77c0-.65-.32-.89-1.18-.89a8.69,8.69,0,0,0-4,1.09Zm5.37,5.64c-2.27.23-3,.6-3,1.52,0,.7.42,1,1.36,1a8.6,8.6,0,0,0,1.64-.16Zm4.88-5.88A19.69,19.69,0,0,1,34,26.77,5,5,0,0,1,37.73,28c.71.77.94,1.61.94,3.41V38.5H35.23V31.57c0-1.38-.44-1.89-1.66-1.89a4.73,4.73,0,0,0-1.59.26v8.57H28.56ZM40.23,40A7.84,7.84,0,0,0,44,41c2.3,0,3.28-.63,3.28-2.9V38a4.7,4.7,0,0,1-2.28.49c-3.06,0-5-2.06-5-5.33,0-4.06,2.85-6.35,8-6.35a21.62,21.62,0,0,1,4.58.51l-1.2,2.58c-.93-.19-.08,0-.78-.1v.37l0,1.51,0,1.95c0,.48,0,1,0,1.46v1c0,3.06-.25,4.18-1,5.36-1.09,1.74-3,2.6-5.66,2.6a9.8,9.8,0,0,1-3.78-.7Zm7-10.34h-.37a3.75,3.75,0,0,0-2,.51,2.79,2.79,0,0,0-1.27,2.62c0,1.78.87,2.8,2.41,2.8a4.26,4.26,0,0,0,1.32-.23V34.14c0-.42,0-.88,0-1.37l0-1.64,0-1.19Zm10.9-2.94c3.67,0,5.91,2.21,5.91,5.8s-2.34,6-6.06,6S52,36.29,52,32.73,54.34,26.73,58.09,26.73ZM58,35.67c1.41,0,2.25-1.12,2.25-3.06s-.82-3.06-2.22-3.06-2.3,1.12-2.3,3.06S56.58,35.67,58,35.67Z"/></svg>