<svg id="Layer_1" data-name="Layer 1" xmlns="http://www.w3.org/2000/svg" viewBox="0 0 500 500"><defs><style>.cls-1{fill:#3ba6f2;}</style></defs><path class="cls-1" d="M21.42,246h6.17q157,0,314-.05c9.26,0,18-2.53,26.69-7.12-6.89-9.85-8.82-20.94-9-32s1.45-22,6.42-32a206.12,206.12,0,0,1,10.55-18.19c.63-1,3.31-1.95,4.1-1.45,16.37,10.47,30.13,23.25,36,42.61.79,2.62,1.4,5.29,1.89,7.19,7.28,0,14.2-.25,21.1.05,13.38.59,26.25,3,37.46,11.21,2.89,2.13,3.71,3.75,2.1,7.16-6.72,14.28-15,27.4-30,33.86-7.82,3.36-16.52,4.81-24.93,6.58-5,1.05-10.16,1.05-15.49,1.55-9.58,22.2-21.64,43.2-37.37,62.11a218.68,218.68,0,0,1-63.52,52.3,234.94,234.94,0,0,1-81.27,27.11c-14.8,2.07-29.78,3-44.71,4a191.26,191.26,0,0,1-26.55,0c-31.77-2.41-61.37-10.84-86.5-31.73s-38.88-48.34-45.79-79.9c-3.27-15-2.62-29.92-2.72-44.93C20,251.74,20.85,249.16,21.42,246Z"/><path class="cls-1" d="M271.5,132.66H224.32V88.31H271.5Z"/><path class="cls-1" d="M159.67,141.2v43.31H111.28V141.2Z"/><path class="cls-1" d="M167.34,141h48.19v43.55H167.34Z"/><path class="cls-1" d="M224.09,184.49V141.31h47.54v43.18Z"/><path class="cls-1" d="M103.47,235.8H55.32V193.28h48.15Z"/><path class="cls-1" d="M111.18,235.56V193.2h48.33v42.36Z"/><path class="cls-1" d="M167.32,193.17h48.33v42.34H167.32Z"/><path class="cls-1" d="M271.7,193.29v42.35H224.37V193.29Z"/><path class="cls-1" d="M327.65,235.67H280.36v-42.4h47.29Z"/></svg>