<svg id="Layer_1" data-name="Layer 1" xmlns="http://www.w3.org/2000/svg" viewBox="0 0 384 512"><defs><style>.cls-1{fill:#3495d1;}.cls-2{fill:#e5231f;}</style></defs><path class="cls-1" d="M277.74,312.9c9.8-6.7,23.4-12.5,23.4-12.5s-38.7,7-77.2,10.2c-47.1,3.9-97.7,4.7-123.1,1.3-60.1-8,33-30.1,33-30.1s-36.1-2.4-80.6,19C.74,326.2,183.24,337.8,277.74,312.9Z"/><path class="cls-2" d="M192.34,280.8c-19-42.7-83.1-80.2,0-145.8C296,53.2,242.84,0,242.84,0c21.5,84.5-75.6,110.1-110.7,162.6C108.24,198.5,143.84,237,192.34,280.8Z"/><path class="cls-2" d="M306.94,104.6c.1,0-175.2,43.8-91.5,140.2,24.7,28.4-6.5,54-6.5,54s62.7-32.4,33.9-72.9C215.94,188.1,195.34,169.3,306.94,104.6Z"/><path class="cls-1" d="M300.84,375.1a12.34,12.34,0,0,1-2,2.6c128.3-33.7,81.1-118.9,19.8-97.3a17.33,17.33,0,0,0-8.2,6.3,69.9,69.9,0,0,1,11-3c31-6.5,75.5,41.5-20.6,91.4Z"/><path class="cls-1" d="M348,437.4s14.5,11.9-15.9,21.2c-57.9,17.5-240.8,22.8-291.6.7-18.3-7.9,16-19,26.8-21.3,11.2-2.4,17.7-2,17.7-2-20.3-14.3-131.3,28.1-56.4,40.2C232.84,509.4,401,461.3,348,437.4Z"/><path class="cls-1" d="M124.44,396c-78.7,22,47.9,67.4,148.1,24.5a185.85,185.85,0,0,1-28.2-13.8c-44.7,8.5-65.4,9.1-106,4.5C104.84,407.4,124.44,396,124.44,396Z"/><path class="cls-1" d="M304.24,493.2c-78.7,14.8-175.8,13.1-233.3,3.6,0-.1,11.8,9.7,72.4,13.6,92.2,5.9,233.8-3.3,237.1-46.9,0,0-6.4,16.5-76.2,29.7Z"/><path class="cls-1" d="M260.64,353c-59.2,11.4-93.5,11.1-136.8,6.6-33.5-3.5-11.6-19.7-11.6-19.7-86.8,28.8,48.2,61.4,169.5,25.9A60.48,60.48,0,0,1,260.64,353Z"/></svg>