<svg id="Layer_1" data-name="Layer 1" xmlns="http://www.w3.org/2000/svg" viewBox="0 0 500 500"><defs><style>.cls-1{fill:#ee4c2c;}</style></defs><path class="cls-1" d="M249.6,24.34c0,.95.12,1.9.12,2.85,0,19.4,0,38.81.06,58.21a7.32,7.32,0,0,1-2.39,5.68q-48.62,48.51-97.17,97.09C130,208.29,116.42,232.06,111,260.1c-8.65,44.83,2.06,84.89,31.34,119.76,19.36,23.06,43.86,38.52,73.23,45.38,43,10,82.63,1.84,118-24.57,27.25-20.32,45.45-47.19,52.71-80.49,10.61-48.73-1.6-91.67-35.09-128.57-.72-.8-1.45-1.59-1.95-2.12l33.22-33.24c.87.91,2.16,2.2,3.4,3.54C412.07,188,429,220.91,434.49,258.93c9.34,64.74-9.81,120.33-56.69,166A174.37,174.37,0,0,1,282.31,473c-56,9.06-106.66-4.19-150.75-40.13C98.09,405.55,76.77,370.39,67.34,328.2a181.17,181.17,0,0,1-3.42-58.93c4.79-45.64,23.93-84.21,56.39-116.5q63.34-63,126.37-126.38a19.37,19.37,0,0,0,1.9-2.63Z"/><path class="cls-1" d="M316,98.82a24.13,24.13,0,1,1-24.24,24.05A24.1,24.1,0,0,1,316,98.82Z"/></svg>